<?xml version="1.0" encoding="UTF-8" standalone="no"?>
<svg
   xmlns:dc="http://purl.org/dc/elements/1.1/"
   xmlns:cc="http://creativecommons.org/ns#"
   xmlns:rdf="http://www.w3.org/1999/02/22-rdf-syntax-ns#"
   xmlns:svg="http://www.w3.org/2000/svg"
   xmlns="http://www.w3.org/2000/svg"
   xmlns:xlink="http://www.w3.org/1999/xlink"
   xmlns:sodipodi="http://sodipodi.sourceforge.net/DTD/sodipodi-0.dtd"
   xmlns:inkscape="http://www.inkscape.org/namespaces/inkscape"
   width="128"
   height="128"
   style="enable-background:new 0 0 128 128;"
   id="svg3521"
   version="1.1"
   inkscape:version="0.91 r13725"
   sodipodi:docname="favicon.svg">
  <metadata
     id="metadata3582">
    <rdf:RDF>
      <cc:Work
         rdf:about="">
        <dc:format>image/svg+xml</dc:format>
        <dc:type
           rdf:resource="http://purl.org/dc/dcmitype/StillImage" />
        <dc:title></dc:title>
      </cc:Work>
    </rdf:RDF>
  </metadata>
  <defs
     id="defs3580" />
  <sodipodi:namedview
     pagecolor="#ffffff"
     bordercolor="#666666"
     borderopacity="1"
     objecttolerance="10"
     gridtolerance="10"
     guidetolerance="10"
     inkscape:pageopacity="0"
     inkscape:pageshadow="2"
     inkscape:window-width="1855"
     inkscape:window-height="1056"
     id="namedview3578"
     showgrid="false"
     inkscape:zoom="7.1796875"
     inkscape:cx="64"
     inkscape:cy="64"
     inkscape:window-x="65"
     inkscape:window-y="24"
     inkscape:window-maximized="1"
     inkscape:current-layer="svg3521" />
  <g
     id="g3523"
     transform="matrix(1.0666667,0,0,1.0666667,-4.2666668,-14.266671)">
    <path
       d="m 24.24,124 -7.94,0 c -1.66,0 -3,-1.34 -3,-3 l 0,-43.73 13.94,0 0,43.73 c 0,1.66 -1.35,3 -3,3 z"
       style="fill:#bdbdbd"
       id="path3525"
       inkscape:connector-curvature="0" />
    <path
       d="m 112.51,124 -7.94,0 c -1.66,0 -3,-1.34 -3,-3 l 0,-43.73 13.94,0 0,43.73 c 0,1.66 -1.34,3 -3,3 z"
       style="fill:#bdbdbd"
       id="path3527"
       inkscape:connector-curvature="0" />
    <g
       style="opacity:0.2"
       id="g3529">
      <path
         d="m 25.24,79.27 0,41.73 c 0,0.55 -0.45,1 -1,1 l -7.94,0 c -0.55,0 -1,-0.45 -1,-1 l 0,-41.73 9.94,0 m 2,-2 -13.95,0 0,43.73 c 0,1.66 1.34,3 3,3 l 7.94,0 c 1.66,0 3,-1.34 3,-3 l 0,-43.73 0.01,0 z"
         style="fill:#424242"
         id="path3531"
         inkscape:connector-curvature="0" />
    </g>
    <g
       style="opacity:0.2"
       id="g3533">
      <path
         d="m 113.51,79.27 0,41.73 c 0,0.55 -0.45,1 -1,1 l -7.94,0 c -0.55,0 -1,-0.45 -1,-1 l 0,-41.73 9.94,0 m 2,-2 -13.94,0 0,43.73 c 0,1.66 1.34,3 3,3 l 7.94,0 c 1.66,0 3,-1.34 3,-3 l 0,-43.73 0,0 z"
         style="fill:#424242"
         id="path3535"
         inkscape:connector-curvature="0" />
    </g>
    <linearGradient
       id="SVGID_1_"
       gradientUnits="userSpaceOnUse"
       x1="64"
       x2="64"
       y1="39.192299"
       y2="81.020203">
      <stop
         offset="0.0256"
         style="stop-color:#FFEE58"
         id="stop3538" />
      <stop
         offset="0.4867"
         style="stop-color:#FDD642"
         id="stop3540" />
      <stop
         offset="1"
         style="stop-color:#FBC02D"
         id="stop3542" />
    </linearGradient>
    <path
       d="m 120,82.17 -112,0 c -2.21,0 -4,-1.79 -4,-4 L 4,44.63 c 0,-2.21 1.79,-4 4,-4 l 112,0 c 2.21,0 4,1.79 4,4 l 0,33.54 c 0,2.21 -1.79,4 -4,4 z"
       style="fill:url(#SVGID_1_)"
       id="path3544"
       inkscape:connector-curvature="0" />
    <circle
       cx="20.35"
       cy="31.4"
       r="9.04"
       style="fill:#bdbdbd"
       id="circle3546" />
    <circle
       cx="20.35"
       cy="31.4"
       r="6.73"
       style="fill:#f44336"
       id="circle3548" />
    <circle
       cx="108.54"
       cy="31.4"
       r="9.04"
       style="fill:#bdbdbd"
       id="circle3550" />
    <circle
       cx="108.54"
       cy="31.4"
       r="6.73"
       style="fill:#f44336"
       id="circle3552" />
    <g
       id="g3554">
      <defs
         id="defs3556">
        <path
           id="SVGID_2_"
           d="m 120,82.17 -112,0 c -2.21,0 -4,-1.79 -4,-4 L 4,44.63 c 0,-2.21 1.79,-4 4,-4 l 112,0 c 2.21,0 4,1.79 4,4 l 0,33.54 c 0,2.21 -1.79,4 -4,4 z"
           inkscape:connector-curvature="0" />
      </defs>
      <clipPath
         id="SVGID_3_">
        <use
           style="overflow:visible"
           xlink:href="#SVGID_2_"
           id="use3560"
           x="0"
           y="0"
           width="100%"
           height="100%" />
      </clipPath>
      <g
         id="g3562"
         clip-path="url(#SVGID_3_)">
        <polygon
           points="-2.13,34.16 15.84,34.16 -15.62,88.64 -33.58,88.64 "
           id="polygon3564" />
        <polygon
           points="34.31,34.16 52.27,34.16 20.82,88.64 2.85,88.64 "
           id="polygon3566" />
        <polygon
           points="70.74,34.16 88.71,34.16 57.26,88.64 39.29,88.64 "
           id="polygon3568" />
        <polygon
           points="107.18,34.16 125.15,34.16 93.69,88.64 75.73,88.64 "
           id="polygon3570" />
        <polygon
           points="143.62,34.16 161.58,34.16 130.13,88.64 112.16,88.64 "
           id="polygon3572" />
      </g>
    </g>
    <g
       style="opacity:0.2"
       id="g3574">
      <path
         d="m 120,43.63 c 0.55,0 1,0.45 1,1 l 0,33.54 c 0,0.55 -0.45,1 -1,1 l -112,0 c -0.55,0 -1,-0.45 -1,-1 L 7,44.63 c 0,-0.55 0.45,-1 1,-1 l 112,0 m 0,-3 -112,0 c -2.21,0 -4,1.79 -4,4 l 0,33.54 c 0,2.21 1.79,4 4,4 l 112,0 c 2.21,0 4,-1.79 4,-4 l 0,-33.54 c 0,-2.2 -1.79,-4 -4,-4 l 0,0 z"
         style="fill:#424242"
         id="path3576"
         inkscape:connector-curvature="0" />
    </g>
  </g>
</svg>
